<svg width="52" height="52" viewBox="0 0 52 52" fill="none" xmlns="http://www.w3.org/2000/svg">
<path fill-rule="evenodd" clip-rule="evenodd" d="M7 0C3.13401 0 0 3.13401 0 7V45C0 48.866 3.13401 52 7 52H45C48.866 52 52 48.866 52 45V7C52 3.13401 48.866 0 45 0H7ZM23.0632 24.8012H27.2964C30.2015 24.8012 32.2766 23.6116 32.5256 21.5496C32.7746 19.5669 31.5296 18.5359 29.1225 18.5359H24.6403L23.0632 24.8012ZM31.1145 15.3636C37.1738 15.3636 38.8339 18.5359 38.5019 21.3117C38.1698 24.0082 36.4268 26.6253 31.1145 27.8942L37.0908 36.1422H30.5335L25.2213 28.3701H22.1502L20.1581 36.1422H14.1818L19.411 15.3636H31.1145Z" fill="white"/>
</svg>
